<svg width="24" height="24" viewBox="0 0 24 24" fill="none" xmlns="http://www.w3.org/2000/svg">
<path d="M20.9665 9.78935L20.243 9.59201L20.9665 9.78935ZM19.6029 14.7894L18.8793 14.592L19.6029 14.7894ZM2 3.25C1.58579 3.25 1.25 3.58579 1.25 4C1.25 4.41421 1.58579 4.75 2 4.75V3.25ZM6.09771 6.22008L6.82193 6.0251L6.09771 6.22008ZM6 6.75H18.0722V5.25H6V6.75ZM20.243 9.59201L18.8793 14.592L20.3265 14.9867L21.6901 9.98669L20.243 9.59201ZM16.7086 16.25H11.2991V17.75H16.7086V16.25ZM18.8793 14.592C18.6124 15.5709 17.7233 16.25 16.7086 16.25V17.75C18.3997 17.75 19.8815 16.6182 20.3265 14.9867L18.8793 14.592ZM18.0722 6.75C19.5558 6.75 20.6333 8.1607 20.243 9.59201L21.6901 9.98669C22.3407 7.60117 20.5449 5.25 18.0722 5.25V6.75ZM2 4.75H3.20087V3.25H2V4.75ZM5.3735 6.41506L7.67808 14.9749L9.1265 14.5849L6.82193 6.0251L5.3735 6.41506ZM3.20087 4.75C4.21823 4.75 5.10901 5.43268 5.3735 6.41506L6.82193 6.0251C6.38111 4.3878 4.89647 3.25 3.20087 3.25V4.75ZM11.2991 16.25C10.2818 16.25 9.39099 15.5673 9.1265 14.5849L7.67808 14.9749C8.11889 16.6122 9.60353 17.75 11.2991 17.75V16.25Z" fill="black"/>
<circle cx="10.5" cy="20.5" r="1.5" fill="black"/>
<circle cx="17.5" cy="20.5" r="1.5" fill="black"/>
</svg>
