<svg width="24" height="24" viewBox="0 0 24 24" fill="none" xmlns="http://www.w3.org/2000/svg">
<path d="M7 15V20.523C7 21.2304 7.71453 21.7142 8.37139 21.4514L11.6286 20.1486C11.867 20.0532 12.133 20.0532 12.3714 20.1486L15.6286 21.4514C16.2855 21.7142 17 21.2304 17 20.523V15" stroke="black" stroke-width="1.5" stroke-linejoin="round"/>
<path d="M10.7028 2.60549C11.4503 1.96847 12.5497 1.96847 13.2972 2.6055L13.9564 3.16724C14.2767 3.44022 14.675 3.60519 15.0945 3.63867L15.9579 3.70757C16.9369 3.78569 17.7143 4.56311 17.7924 5.54213L17.8613 6.40545C17.8948 6.82498 18.0598 7.22326 18.3328 7.54359L18.8945 8.20277C19.5315 8.95028 19.5315 10.0497 18.8945 10.7972L18.3328 11.4564C18.0598 11.7767 17.8948 12.175 17.8613 12.5945L17.7924 13.4579C17.7143 14.4369 16.9369 15.2143 15.9579 15.2924L15.0945 15.3613C14.675 15.3948 14.2767 15.5598 13.9564 15.8328L13.2972 16.3945C12.5497 17.0315 11.4503 17.0315 10.7028 16.3945L10.0436 15.8328C9.72326 15.5598 9.32498 15.3948 8.90545 15.3613L8.04213 15.2924C7.06311 15.2143 6.28569 14.4369 6.20757 13.4579L6.13867 12.5945C6.10519 12.175 5.94022 11.7767 5.66724 11.4564L5.10549 10.7972C4.46847 10.0497 4.46847 8.95028 5.1055 8.20277L5.66724 7.54359C5.94022 7.22326 6.10519 6.82498 6.13867 6.40545L6.20757 5.54213C6.28569 4.56311 7.06311 3.78569 8.04213 3.70757L8.90545 3.63867C9.32499 3.60519 9.72326 3.44022 10.0436 3.16724L10.7028 2.60549Z" stroke="black" stroke-width="1.5"/>
</svg>
