<svg viewBox="0 0 24 24" fill="none" xmlns="http://www.w3.org/2000/svg">
<path fill-rule="evenodd" clip-rule="evenodd" d="M10.9538 4.79267C11.2831 3.77922 12.7169 3.77924 13.0462 4.79267L14.341 8.77783H18.5313C19.5969 8.77783 20.0399 10.1414 19.1778 10.7678L15.7879 13.2307L17.0827 17.2159C17.412 18.2293 16.2521 19.0721 15.39 18.4457L12 15.9827L8.61003 18.4457C7.74794 19.0721 6.58802 18.2293 6.91731 17.2159L8.21216 13.2307L4.82218 10.7678C3.96009 10.1414 4.40316 8.77783 5.46875 8.77783H9.65899L10.9538 4.79267ZM12 6.42702L10.9958 9.51775C10.8485 9.97098 10.4262 10.2778 9.94961 10.2778H6.69982L9.32896 12.188C9.71449 12.4681 9.87581 12.9646 9.72855 13.4178L8.72431 16.5086L11.3534 14.5984C11.739 14.3183 12.261 14.3183 12.6466 14.5984L15.2757 16.5086L14.2715 13.4178C14.1242 12.9646 14.2855 12.4681 14.6711 12.188L17.3002 10.2778H14.0504C13.5739 10.2778 13.1515 9.97098 13.0043 9.51775L12 6.42702Z" fill="currentColor"/>
</svg>
