<svg width="191" height="27" viewBox="0 0 191 27" fill="none" xmlns="http://www.w3.org/2000/svg">
<path d="M15.0259 0.40625H20.2818V17.3164C20.2818 19.2852 19.8599 20.9434 19.0162 22.291C18.1841 23.6387 17.0298 24.6523 15.5533 25.332C14.0884 26.0117 12.4009 26.3516 10.4908 26.3516C8.58061 26.3516 6.88139 26.0117 5.39311 25.332C3.91655 24.6523 2.75639 23.6387 1.91264 22.291C1.08061 20.9434 0.664597 19.2852 0.664597 17.3164V0.40625H5.93803V17.3164C5.93803 18.4648 6.11967 19.4023 6.48296 20.1289C6.84624 20.8555 7.36772 21.3887 8.04741 21.7285C8.73882 22.0684 9.55327 22.2383 10.4908 22.2383C11.4517 22.2383 12.2662 22.0684 12.9341 21.7285C13.6138 21.3887 14.1294 20.8555 14.481 20.1289C14.8443 19.4023 15.0259 18.4648 15.0259 17.3164V0.40625ZM45.4537 0.40625V26H40.1802L29.897 8.84375V26H24.6236V0.40625H29.897L40.1978 17.5801V0.40625H45.4537ZM55.649 0.40625V26H50.3931V0.40625H55.649ZM69.8169 20.6562L75.8462 0.40625H81.7173L72.8052 26H68.938L69.8169 20.6562ZM64.2623 0.40625L70.274 20.6562L71.188 26H67.2857L58.4263 0.40625H64.2623ZM101.282 21.8867V26H87.6587V21.8867H101.282ZM89.3814 0.40625V26H84.108V0.40625H89.3814ZM99.5064 10.8301V14.8379H87.6587V10.8301H99.5064ZM101.264 0.40625V4.53711H87.6587V0.40625H101.264ZM104.358 0.40625H113.903C115.86 0.40625 117.542 0.699219 118.948 1.28516C120.366 1.87109 121.456 2.73828 122.217 3.88672C122.979 5.03516 123.36 6.44727 123.36 8.12305C123.36 9.49414 123.126 10.6719 122.657 11.6562C122.2 12.6289 121.549 13.4434 120.706 14.0996C119.874 14.7441 118.895 15.2598 117.77 15.6465L116.1 16.5254H107.803L107.768 12.4121H113.938C114.864 12.4121 115.631 12.248 116.241 11.9199C116.85 11.5918 117.307 11.1348 117.612 10.5488C117.928 9.96289 118.086 9.2832 118.086 8.50977C118.086 7.68945 117.934 6.98047 117.629 6.38281C117.325 5.78516 116.862 5.32812 116.241 5.01172C115.62 4.69531 114.84 4.53711 113.903 4.53711H109.631V26H104.358V0.40625ZM118.667 26L112.831 14.5918L118.403 14.5566L124.309 25.7539V26H118.667ZM140.745 19.3027C140.745 18.8457 140.674 18.4355 140.534 18.0723C140.405 17.6973 140.159 17.3574 139.795 17.0527C139.432 16.7363 138.922 16.4258 138.266 16.1211C137.61 15.8164 136.76 15.5 135.717 15.1719C134.557 14.7969 133.456 14.375 132.413 13.9062C131.381 13.4375 130.467 12.8926 129.67 12.2715C128.885 11.6387 128.264 10.9062 127.807 10.0742C127.362 9.24219 127.139 8.27539 127.139 7.17383C127.139 6.10742 127.374 5.14062 127.842 4.27344C128.311 3.39453 128.967 2.64453 129.811 2.02344C130.655 1.39062 131.651 0.904297 132.799 0.564453C133.96 0.224609 135.231 0.0546875 136.614 0.0546875C138.501 0.0546875 140.147 0.394531 141.553 1.07422C142.96 1.75391 144.049 2.68555 144.823 3.86914C145.608 5.05273 146.001 6.40625 146.001 7.92969H140.762C140.762 7.17969 140.604 6.52344 140.288 5.96094C139.983 5.38672 139.514 4.93555 138.881 4.60742C138.26 4.2793 137.475 4.11523 136.526 4.11523C135.612 4.11523 134.85 4.25586 134.241 4.53711C133.631 4.80664 133.174 5.17578 132.87 5.64453C132.565 6.10156 132.413 6.61719 132.413 7.19141C132.413 7.625 132.518 8.01758 132.729 8.36914C132.952 8.7207 133.28 9.04883 133.713 9.35352C134.147 9.6582 134.68 9.94531 135.313 10.2148C135.946 10.4844 136.678 10.748 137.51 11.0059C138.905 11.4277 140.129 11.9023 141.184 12.4297C142.251 12.957 143.141 13.5488 143.856 14.2051C144.571 14.8613 145.11 15.6055 145.473 16.4375C145.836 17.2695 146.018 18.2129 146.018 19.2676C146.018 20.3809 145.801 21.377 145.368 22.2559C144.934 23.1348 144.307 23.8789 143.487 24.4883C142.667 25.0977 141.688 25.5605 140.551 25.877C139.415 26.1934 138.143 26.3516 136.737 26.3516C135.471 26.3516 134.223 26.1875 132.993 25.8594C131.762 25.5195 130.643 25.0098 129.635 24.3301C128.639 23.6504 127.842 22.7832 127.245 21.7285C126.647 20.6738 126.348 19.4258 126.348 17.9844H131.639C131.639 18.7812 131.762 19.4551 132.008 20.0059C132.254 20.5566 132.6 21.002 133.045 21.3418C133.502 21.6816 134.042 21.9277 134.663 22.0801C135.295 22.2324 135.987 22.3086 136.737 22.3086C137.651 22.3086 138.401 22.1797 138.987 21.9219C139.585 21.6641 140.024 21.3066 140.305 20.8496C140.598 20.3926 140.745 19.877 140.745 19.3027ZM160.01 4.7832L153.049 26H147.442L156.952 0.40625H160.52L160.01 4.7832ZM165.794 26L158.815 4.7832L158.252 0.40625H161.856L171.419 26H165.794ZM165.477 16.4727V20.6035H151.96V16.4727H165.477ZM190.245 21.8867V26H177.36V21.8867H190.245ZM179.065 0.40625V26H173.792V0.40625H179.065Z" fill="white"/>
</svg>
