<svg xmlns="http://www.w3.org/2000/svg" width="1220" height="582" fill="none"><g clip-path="url(#clip0)"><path fill="#09141F" d="M0 0h1220v582H0z"/><ellipse opacity=".2" cx="1067.17" cy="19.79" rx="882.5" ry="438.555" transform="rotate(29.868 1067.17 19.79)" fill="url(#paint0_radial)"/><path opacity=".3" d="M610 503c0 306.518-293.03 555-654.5 555S-699 809.518-699 503c0-306.518 293.03-555 654.5-555S610 196.482 610 503z" fill="url(#paint1_radial)"/><path opacity=".25" d="M1207 774c0 236.38-255.198 428-570 428S67 1010.38 67 774c0-236.378 255.198-428 570-428s570 191.622 570 428z" fill="url(#paint2_radial)"/></g><defs><linearGradient id="paint4_linear" x1="314" y1="342" x2="314" y2="382" gradientUnits="userSpaceOnUse"><stop stop-color="#fff"/><stop offset="1" stop-color="#fff" stop-opacity="0"/></linearGradient><linearGradient id="paint5_linear" x1="229" y1="222" x2="229" y2="395" gradientUnits="userSpaceOnUse"><stop stop-color="#fff"/><stop offset="1" stop-color="#fff" stop-opacity="0"/></linearGradient><linearGradient id="paint7_linear" x1="568" y1="342" x2="568" y2="382" gradientUnits="userSpaceOnUse"><stop stop-color="#fff"/><stop offset="1" stop-color="#fff" stop-opacity="0"/></linearGradient><linearGradient id="paint8_linear" x1="483" y1="222" x2="483" y2="395" gradientUnits="userSpaceOnUse"><stop stop-color="#fff"/><stop offset="1" stop-color="#fff" stop-opacity="0"/></linearGradient><linearGradient id="paint10_linear" x1="822" y1="342" x2="822" y2="382" gradientUnits="userSpaceOnUse"><stop stop-color="#fff"/><stop offset="1" stop-color="#fff" stop-opacity="0"/></linearGradient><linearGradient id="paint11_linear" x1="737" y1="222" x2="737" y2="395" gradientUnits="userSpaceOnUse"><stop stop-color="#fff"/><stop offset="1" stop-color="#fff" stop-opacity="0"/></linearGradient><linearGradient id="paint13_linear" x1="1076" y1="342" x2="1076" y2="382" gradientUnits="userSpaceOnUse"><stop stop-color="#fff"/><stop offset="1" stop-color="#fff" stop-opacity="0"/></linearGradient><linearGradient id="paint14_linear" x1="991" y1="222" x2="991" y2="395" gradientUnits="userSpaceOnUse"><stop stop-color="#fff"/><stop offset="1" stop-color="#fff" stop-opacity="0"/></linearGradient><filter id="filter0_bd" x="74.739" y="187.72" width="308.522" height="247.522" filterUnits="userSpaceOnUse" color-interpolation-filters="sRGB"><feFlood flood-opacity="0" result="BackgroundImageFix"/><feGaussianBlur in="BackgroundImage" stdDeviation="14.905"/><feComposite in2="SourceAlpha" operator="in" result="effect1_backgroundBlur"/><feColorMatrix in="SourceAlpha" values="0 0 0 0 0 0 0 0 0 0 0 0 0 0 0 0 0 0 127 0" result="hardAlpha"/><feMorphology radius="7.452" operator="dilate" in="SourceAlpha" result="effect2_dropShadow"/><feOffset dy="2.981"/><feGaussianBlur stdDeviation="14.905"/><feColorMatrix values="0 0 0 0 0 0 0 0 0 0 0 0 0 0 0 0 0 0 0.04 0"/><feBlend in2="effect1_backgroundBlur" result="effect2_dropShadow"/><feBlend in="SourceGraphic" in2="effect2_dropShadow" result="shape"/></filter><filter id="filter1_bd" x="256.739" y="307.72" width="114.522" height="114.522" filterUnits="userSpaceOnUse" color-interpolation-filters="sRGB"><feFlood flood-opacity="0" result="BackgroundImageFix"/><feGaussianBlur in="BackgroundImage" stdDeviation="14.905"/><feComposite in2="SourceAlpha" operator="in" result="effect1_backgroundBlur"/><feColorMatrix in="SourceAlpha" values="0 0 0 0 0 0 0 0 0 0 0 0 0 0 0 0 0 0 127 0" result="hardAlpha"/><feMorphology radius="7.452" operator="dilate" in="SourceAlpha" result="effect2_dropShadow"/><feOffset dy="2.981"/><feGaussianBlur stdDeviation="14.905"/><feColorMatrix values="0 0 0 0 0 0 0 0 0 0 0 0 0 0 0 0 0 0 0.04 0"/><feBlend in2="effect1_backgroundBlur" result="effect2_dropShadow"/><feBlend in="SourceGraphic" in2="effect2_dropShadow" result="shape"/></filter><filter id="filter2_bd" x="328.739" y="187.72" width="308.522" height="247.522" filterUnits="userSpaceOnUse" color-interpolation-filters="sRGB"><feFlood flood-opacity="0" result="BackgroundImageFix"/><feGaussianBlur in="BackgroundImage" stdDeviation="14.905"/><feComposite in2="SourceAlpha" operator="in" result="effect1_backgroundBlur"/><feColorMatrix in="SourceAlpha" values="0 0 0 0 0 0 0 0 0 0 0 0 0 0 0 0 0 0 127 0" result="hardAlpha"/><feMorphology radius="7.452" operator="dilate" in="SourceAlpha" result="effect2_dropShadow"/><feOffset dy="2.981"/><feGaussianBlur stdDeviation="14.905"/><feColorMatrix values="0 0 0 0 0 0 0 0 0 0 0 0 0 0 0 0 0 0 0.04 0"/><feBlend in2="effect1_backgroundBlur" result="effect2_dropShadow"/><feBlend in="SourceGraphic" in2="effect2_dropShadow" result="shape"/></filter><filter id="filter3_bd" x="510.739" y="307.72" width="114.522" height="114.522" filterUnits="userSpaceOnUse" color-interpolation-filters="sRGB"><feFlood flood-opacity="0" result="BackgroundImageFix"/><feGaussianBlur in="BackgroundImage" stdDeviation="14.905"/><feComposite in2="SourceAlpha" operator="in" result="effect1_backgroundBlur"/><feColorMatrix in="SourceAlpha" values="0 0 0 0 0 0 0 0 0 0 0 0 0 0 0 0 0 0 127 0" result="hardAlpha"/><feMorphology radius="7.452" operator="dilate" in="SourceAlpha" result="effect2_dropShadow"/><feOffset dy="2.981"/><feGaussianBlur stdDeviation="14.905"/><feColorMatrix values="0 0 0 0 0 0 0 0 0 0 0 0 0 0 0 0 0 0 0.04 0"/><feBlend in2="effect1_backgroundBlur" result="effect2_dropShadow"/><feBlend in="SourceGraphic" in2="effect2_dropShadow" result="shape"/></filter><filter id="filter4_bd" x="582.739" y="187.72" width="308.522" height="247.522" filterUnits="userSpaceOnUse" color-interpolation-filters="sRGB"><feFlood flood-opacity="0" result="BackgroundImageFix"/><feGaussianBlur in="BackgroundImage" stdDeviation="14.905"/><feComposite in2="SourceAlpha" operator="in" result="effect1_backgroundBlur"/><feColorMatrix in="SourceAlpha" values="0 0 0 0 0 0 0 0 0 0 0 0 0 0 0 0 0 0 127 0" result="hardAlpha"/><feMorphology radius="7.452" operator="dilate" in="SourceAlpha" result="effect2_dropShadow"/><feOffset dy="2.981"/><feGaussianBlur stdDeviation="14.905"/><feColorMatrix values="0 0 0 0 0 0 0 0 0 0 0 0 0 0 0 0 0 0 0.04 0"/><feBlend in2="effect1_backgroundBlur" result="effect2_dropShadow"/><feBlend in="SourceGraphic" in2="effect2_dropShadow" result="shape"/></filter><filter id="filter5_bd" x="764.739" y="307.72" width="114.522" height="114.522" filterUnits="userSpaceOnUse" color-interpolation-filters="sRGB"><feFlood flood-opacity="0" result="BackgroundImageFix"/><feGaussianBlur in="BackgroundImage" stdDeviation="14.905"/><feComposite in2="SourceAlpha" operator="in" result="effect1_backgroundBlur"/><feColorMatrix in="SourceAlpha" values="0 0 0 0 0 0 0 0 0 0 0 0 0 0 0 0 0 0 127 0" result="hardAlpha"/><feMorphology radius="7.452" operator="dilate" in="SourceAlpha" result="effect2_dropShadow"/><feOffset dy="2.981"/><feGaussianBlur stdDeviation="14.905"/><feColorMatrix values="0 0 0 0 0 0 0 0 0 0 0 0 0 0 0 0 0 0 0.04 0"/><feBlend in2="effect1_backgroundBlur" result="effect2_dropShadow"/><feBlend in="SourceGraphic" in2="effect2_dropShadow" result="shape"/></filter><filter id="filter6_bd" x="836.739" y="187.72" width="308.522" height="247.522" filterUnits="userSpaceOnUse" color-interpolation-filters="sRGB"><feFlood flood-opacity="0" result="BackgroundImageFix"/><feGaussianBlur in="BackgroundImage" stdDeviation="14.905"/><feComposite in2="SourceAlpha" operator="in" result="effect1_backgroundBlur"/><feColorMatrix in="SourceAlpha" values="0 0 0 0 0 0 0 0 0 0 0 0 0 0 0 0 0 0 127 0" result="hardAlpha"/><feMorphology radius="7.452" operator="dilate" in="SourceAlpha" result="effect2_dropShadow"/><feOffset dy="2.981"/><feGaussianBlur stdDeviation="14.905"/><feColorMatrix values="0 0 0 0 0 0 0 0 0 0 0 0 0 0 0 0 0 0 0.04 0"/><feBlend in2="effect1_backgroundBlur" result="effect2_dropShadow"/><feBlend in="SourceGraphic" in2="effect2_dropShadow" result="shape"/></filter><filter id="filter7_bd" x="1018.74" y="307.72" width="114.522" height="114.522" filterUnits="userSpaceOnUse" color-interpolation-filters="sRGB"><feFlood flood-opacity="0" result="BackgroundImageFix"/><feGaussianBlur in="BackgroundImage" stdDeviation="14.905"/><feComposite in2="SourceAlpha" operator="in" result="effect1_backgroundBlur"/><feColorMatrix in="SourceAlpha" values="0 0 0 0 0 0 0 0 0 0 0 0 0 0 0 0 0 0 127 0" result="hardAlpha"/><feMorphology radius="7.452" operator="dilate" in="SourceAlpha" result="effect2_dropShadow"/><feOffset dy="2.981"/><feGaussianBlur stdDeviation="14.905"/><feColorMatrix values="0 0 0 0 0 0 0 0 0 0 0 0 0 0 0 0 0 0 0.04 0"/><feBlend in2="effect1_backgroundBlur" result="effect2_dropShadow"/><feBlend in="SourceGraphic" in2="effect2_dropShadow" result="shape"/></filter><radialGradient id="paint0_radial" cx="0" cy="0" r="1" gradientUnits="userSpaceOnUse" gradientTransform="matrix(0 438.555 -882.5 0 1067.17 19.79)"><stop stop-color="#007AE6"/><stop offset="1" stop-color="#007CE8" stop-opacity="0"/></radialGradient><radialGradient id="paint1_radial" cx="0" cy="0" r="1" gradientUnits="userSpaceOnUse" gradientTransform="matrix(0 555 -654.5 0 -44.5 503)"><stop stop-color="#CC3600" stop-opacity=".8"/><stop offset="1" stop-color="#FF4901" stop-opacity="0"/></radialGradient><radialGradient id="paint2_radial" cx="0" cy="0" r="1" gradientUnits="userSpaceOnUse" gradientTransform="matrix(0 428 -570 0 637 774)"><stop stop-color="#E36D00" stop-opacity=".8"/><stop offset="1" stop-color="#E26D00" stop-opacity="0"/></radialGradient><radialGradient id="paint3_radial" cx="0" cy="0" r="1" gradientUnits="userSpaceOnUse" gradientTransform="matrix(1.50007 114.51418 -284.83056 3.73112 232 231.83)"><stop stop-color="#fff"/><stop offset="1" stop-color="#fff" stop-opacity="0"/></radialGradient><radialGradient id="paint6_radial" cx="0" cy="0" r="1" gradientUnits="userSpaceOnUse" gradientTransform="matrix(1.50007 114.51418 -284.83056 3.73112 486 231.83)"><stop stop-color="#fff"/><stop offset="1" stop-color="#fff" stop-opacity="0"/></radialGradient><radialGradient id="paint9_radial" cx="0" cy="0" r="1" gradientUnits="userSpaceOnUse" gradientTransform="matrix(1.50007 114.51418 -284.83056 3.73112 740 231.83)"><stop stop-color="#fff"/><stop offset="1" stop-color="#fff" stop-opacity="0"/></radialGradient><radialGradient id="paint12_radial" cx="0" cy="0" r="1" gradientUnits="userSpaceOnUse" gradientTransform="matrix(1.50007 114.51418 -284.83056 3.73112 994 231.83)"><stop stop-color="#fff"/><stop offset="1" stop-color="#fff" stop-opacity="0"/></radialGradient><clipPath id="clip0"><path fill="#fff" d="M0 0h1220v582H0z"/></clipPath><clipPath id="clip1"><path d="M112 254c0-11.201 0-16.802 2.18-21.08a19.996 19.996 0 018.74-8.74C127.198 222 132.799 222 144 222h170c11.201 0 16.802 0 21.08 2.18a19.996 19.996 0 018.74 8.74C346 237.198 346 242.799 346 254v109c0 11.201 0 16.802-2.18 21.08a19.996 19.996 0 01-8.74 8.74C330.802 395 325.201 395 314 395H144c-11.201 0-16.802 0-21.08-2.18a19.996 19.996 0 01-8.74-8.74C112 379.802 112 374.201 112 363V254z" fill="#fff"/></clipPath><clipPath id="clip2"><path d="M366 254c0-11.201 0-16.802 2.18-21.08a19.996 19.996 0 018.74-8.74C381.198 222 386.799 222 398 222h170c11.201 0 16.802 0 21.08 2.18a19.996 19.996 0 018.74 8.74C600 237.198 600 242.799 600 254v109c0 11.201 0 16.802-2.18 21.08a19.996 19.996 0 01-8.74 8.74C584.802 395 579.201 395 568 395H398c-11.201 0-16.802 0-21.08-2.18a19.996 19.996 0 01-8.74-8.74C366 379.802 366 374.201 366 363V254z" fill="#fff"/></clipPath><clipPath id="clip3"><path d="M620 254c0-11.201 0-16.802 2.18-21.08a19.996 19.996 0 018.74-8.74C635.198 222 640.799 222 652 222h170c11.201 0 16.802 0 21.08 2.18a19.996 19.996 0 018.74 8.74C854 237.198 854 242.799 854 254v109c0 11.201 0 16.802-2.18 21.08a19.996 19.996 0 01-8.74 8.74C838.802 395 833.201 395 822 395H652c-11.201 0-16.802 0-21.08-2.18a19.996 19.996 0 01-8.74-8.74C620 379.802 620 374.201 620 363V254z" fill="#fff"/></clipPath><clipPath id="clip4"><path d="M874 254c0-11.201 0-16.802 2.18-21.08a19.996 19.996 0 018.74-8.74C889.198 222 894.799 222 906 222h170c11.2 0 16.8 0 21.08 2.18a20.027 20.027 0 018.74 8.74c2.18 4.278 2.18 9.879 2.18 21.08v109c0 11.201 0 16.802-2.18 21.08a20.027 20.027 0 01-8.74 8.74C1092.8 395 1087.2 395 1076 395H906c-11.201 0-16.802 0-21.08-2.18a19.996 19.996 0 01-8.74-8.74C874 379.802 874 374.201 874 363V254z" fill="#fff"/></clipPath></defs></svg>